<svg width="48" height="11" viewBox="0 0 48 11" fill="none" xmlns="http://www.w3.org/2000/svg">
<path d="M10.062 10H8.294L7.345 7.166H2.73L1.781 10H0.013L3.432 0.119999H6.643L10.062 10ZM5.044 0.328L3.211 5.736H6.864L5.044 0.328ZM14.0339 10.156C11.9149 10.156 10.5239 8.674 10.5239 6.49C10.5239 4.306 11.9279 2.837 14.0339 2.837C15.8279 2.837 17.0369 3.877 17.3359 5.437H15.6849C15.5029 4.631 14.9699 3.981 14.0339 3.981C12.8509 3.981 12.1749 4.956 12.1749 6.49C12.1749 8.05 12.8639 9.012 14.0339 9.012C14.9569 9.012 15.5029 8.492 15.7629 7.582H17.4009C17.0499 9.246 15.7109 10.156 14.0339 10.156ZM21.8034 10.156C19.6844 10.156 18.2934 8.674 18.2934 6.49C18.2934 4.306 19.6974 2.837 21.8034 2.837C23.5974 2.837 24.8064 3.877 25.1054 5.437H23.4544C23.2724 4.631 22.7394 3.981 21.8034 3.981C20.6204 3.981 19.9444 4.956 19.9444 6.49C19.9444 8.05 20.6334 9.012 21.8034 9.012C22.7264 9.012 23.2724 8.492 23.5324 7.582H25.1704C24.8194 9.246 23.4804 10.156 21.8034 10.156ZM32.927 6.451C32.927 6.607 32.914 6.789 32.888 6.971H27.714C27.844 8.323 28.533 9.012 29.521 9.012C30.418 9.012 30.873 8.609 31.12 7.933H32.771C32.329 9.428 31.146 10.156 29.508 10.156C27.363 10.156 26.063 8.622 26.063 6.49C26.063 4.345 27.402 2.837 29.508 2.837C31.575 2.837 32.927 4.267 32.927 6.451ZM29.508 3.981C28.559 3.981 27.896 4.579 27.727 5.84H31.263C31.185 4.722 30.509 3.981 29.508 3.981ZM36.9885 10.156C35.3505 10.156 34.0895 9.402 33.8815 7.92H35.5195C35.6885 8.765 36.3645 9.012 37.0275 9.012C38.0155 9.012 38.5355 8.661 38.5355 8.115C38.5355 7.582 38.2105 7.322 37.1965 7.114L36.0915 6.867C34.8175 6.594 34.0375 6.009 34.0375 4.943C34.0375 3.656 35.3375 2.837 36.9365 2.837C38.4185 2.837 39.6665 3.487 39.9655 4.787H38.3275C38.1455 4.267 37.5735 3.981 36.9495 3.981C36.2475 3.981 35.6105 4.28 35.6105 4.813C35.6105 5.294 36.0395 5.463 36.8845 5.645L37.9895 5.879C39.4585 6.191 40.0955 6.841 40.0955 7.959C40.0955 9.35 38.7825 10.156 36.9885 10.156ZM44.1359 10.156C42.4979 10.156 41.2369 9.402 41.0289 7.92H42.6669C42.8359 8.765 43.5119 9.012 44.1749 9.012C45.1629 9.012 45.6829 8.661 45.6829 8.115C45.6829 7.582 45.3579 7.322 44.3439 7.114L43.2389 6.867C41.9649 6.594 41.1849 6.009 41.1849 4.943C41.1849 3.656 42.4849 2.837 44.0839 2.837C45.5659 2.837 46.8139 3.487 47.1129 4.787H45.4749C45.2929 4.267 44.7209 3.981 44.0969 3.981C43.3949 3.981 42.7579 4.28 42.7579 4.813C42.7579 5.294 43.1869 5.463 44.0319 5.645L45.1369 5.879C46.6059 6.191 47.2429 6.841 47.2429 7.959C47.2429 9.35 45.9299 10.156 44.1359 10.156Z" fill="#101820"/>
</svg>
