<svg width="16" height="16" viewBox="0 0 16 16" fill="none" xmlns="http://www.w3.org/2000/svg">
<g clip-path="url(#clip0_149_20204)">
<path d="M12.3831 12.1781C12.4445 12.251 12.4837 12.3399 12.4962 12.4344C12.5087 12.5288 12.4939 12.6249 12.4537 12.7113C12.4134 12.7976 12.3494 12.8707 12.269 12.9218C12.1886 12.973 12.0953 13.0001 12 13H1.5C1.40478 13 1.31155 12.9728 1.23127 12.9216C1.15098 12.8704 1.08699 12.7973 1.04681 12.711C1.00663 12.6246 0.991942 12.5286 1.00447 12.4342C1.01699 12.3398 1.05621 12.251 1.1175 12.1781C2.05125 11.0669 3.2125 10.2775 4.50313 9.855C3.71932 9.36681 3.11583 8.63663 2.78396 7.77492C2.4521 6.91321 2.40991 5.96685 2.66379 5.07903C2.91766 4.19121 3.45379 3.41022 4.19105 2.85423C4.92831 2.29824 5.8266 1.9975 6.75 1.9975C7.67341 1.9975 8.5717 2.29824 9.30896 2.85423C10.0462 3.41022 10.5823 4.19121 10.8362 5.07903C11.0901 5.96685 11.0479 6.91321 10.716 7.77492C10.3842 8.63663 9.78069 9.36681 8.99688 9.855C10.2875 10.2775 11.4488 11.0669 12.3831 12.1781ZM15.9488 9.625C15.9048 9.70112 15.8416 9.7643 15.7654 9.8082C15.6893 9.85209 15.6029 9.87513 15.515 9.875C15.4272 9.87527 15.3409 9.85219 15.265 9.80812L14.9731 9.63937C14.8335 9.75921 14.6728 9.85223 14.4994 9.91375V10.25C14.4994 10.3826 14.4467 10.5098 14.3529 10.6036C14.2592 10.6973 14.132 10.75 13.9994 10.75C13.8668 10.75 13.7396 10.6973 13.6458 10.6036C13.5521 10.5098 13.4994 10.3826 13.4994 10.25V9.91375C13.3259 9.85223 13.1653 9.75921 13.0256 9.63937L12.7338 9.80812C12.6578 9.85219 12.5715 9.87527 12.4838 9.875C12.3737 9.87504 12.2666 9.83874 12.1793 9.77173C12.0919 9.70472 12.0291 9.61075 12.0006 9.50439C11.9721 9.39804 11.9795 9.28526 12.0217 9.18355C12.0638 9.08183 12.1384 8.99688 12.2338 8.94187L12.525 8.77375C12.4908 8.59285 12.4908 8.40715 12.525 8.22625L12.2338 8.05812C12.1769 8.02529 12.127 7.98158 12.087 7.92948C12.0471 7.87738 12.0177 7.81792 12.0007 7.75449C11.9837 7.69105 11.9794 7.62489 11.9879 7.55978C11.9965 7.49466 12.0178 7.43188 12.0506 7.375C12.0835 7.31812 12.1272 7.26826 12.1793 7.22828C12.2314 7.18829 12.2908 7.15896 12.3543 7.14196C12.4177 7.12495 12.4839 7.12061 12.549 7.12917C12.6141 7.13774 12.6769 7.15904 12.7338 7.19187L13.0256 7.36062C13.1653 7.24078 13.3259 7.14777 13.4994 7.08625V6.75C13.4994 6.61739 13.5521 6.49021 13.6458 6.39644C13.7396 6.30268 13.8668 6.25 13.9994 6.25C14.132 6.25 14.2592 6.30268 14.3529 6.39644C14.4467 6.49021 14.4994 6.61739 14.4994 6.75V7.08625C14.6728 7.14777 14.8335 7.24078 14.9731 7.36062L15.265 7.19187C15.3219 7.15904 15.3847 7.13774 15.4498 7.12917C15.5149 7.12061 15.5811 7.12495 15.6445 7.14196C15.7079 7.15896 15.7674 7.18829 15.8195 7.22828C15.8716 7.26826 15.9153 7.31812 15.9481 7.375C15.981 7.43188 16.0023 7.49466 16.0108 7.55978C16.0194 7.62489 16.0151 7.69105 15.998 7.75449C15.981 7.81792 15.9517 7.87738 15.9117 7.92948C15.8717 7.98158 15.8219 8.02529 15.765 8.05812L15.4738 8.22625C15.5079 8.40715 15.5079 8.59285 15.4738 8.77375L15.765 8.94187C15.8219 8.97464 15.8719 9.01831 15.9119 9.07038C15.952 9.12246 15.9814 9.18191 15.9984 9.24536C16.0155 9.3088 16.0199 9.37498 16.0114 9.44012C16.0029 9.50526 15.9816 9.56809 15.9488 9.625ZM14 9C14.0989 9 14.1956 8.97067 14.2778 8.91573C14.36 8.86079 14.4241 8.7827 14.4619 8.69134C14.4998 8.59998 14.5097 8.49944 14.4904 8.40245C14.4711 8.30546 14.4235 8.21637 14.3536 8.14644C14.2836 8.07652 14.1945 8.0289 14.0976 8.00961C14.0006 7.99031 13.9 8.00021 13.8087 8.03806C13.7173 8.0759 13.6392 8.13999 13.5843 8.22221C13.5293 8.30444 13.5 8.40111 13.5 8.5C13.5 8.63261 13.5527 8.75978 13.6465 8.85355C13.7402 8.94732 13.8674 9 14 9Z" fill="#101820"/>
</g>
<defs>
<clipPath id="clip0_149_20204">
<rect width="16" height="16" fill="white"/>
</clipPath>
</defs>
</svg>
