<svg width="16" height="16" viewBox="0 0 16 16" fill="none" xmlns="http://www.w3.org/2000/svg">
<g clip-path="url(#clip0_149_20201)">
<path d="M8 1.5C6.71442 1.5 5.45772 1.88122 4.3888 2.59545C3.31988 3.30968 2.48676 4.32484 1.99479 5.51256C1.50282 6.70028 1.37409 8.00721 1.6249 9.26809C1.8757 10.529 2.49477 11.6872 3.40381 12.5962C4.31285 13.5052 5.47104 14.1243 6.73192 14.3751C7.99279 14.6259 9.29973 14.4972 10.4874 14.0052C11.6752 13.5132 12.6903 12.6801 13.4046 11.6112C14.1188 10.5423 14.5 9.28558 14.5 8C14.4982 6.27665 13.8128 4.62441 12.5942 3.40582C11.3756 2.18722 9.72335 1.50182 8 1.5ZM11.2238 5.11188L9.22375 9.11187C9.19927 9.16008 9.16009 9.19926 9.11188 9.22375L5.11188 11.2238C5.06492 11.2473 5.01172 11.2555 4.95984 11.2472C4.90795 11.2388 4.86003 11.2143 4.82287 11.1771C4.78571 11.14 4.7612 11.092 4.75283 11.0402C4.74447 10.9883 4.75266 10.9351 4.77625 10.8881L6.77625 6.88812C6.80074 6.83991 6.83992 6.80074 6.88813 6.77625L10.8881 4.77625C10.9351 4.75266 10.9883 4.74446 11.0402 4.75283C11.0921 4.7612 11.14 4.7857 11.1771 4.82286C11.2143 4.86002 11.2388 4.90795 11.2472 4.95983C11.2555 5.01172 11.2473 5.06492 11.2238 5.11188Z" fill="#101820"/>
</g>
<defs>
<clipPath id="clip0_149_20201">
<rect width="16" height="16" fill="white"/>
</clipPath>
</defs>
</svg>
