<svg width="16" height="16" viewBox="0 0 16 16" fill="none" xmlns="http://www.w3.org/2000/svg">
<g clip-path="url(#clip0_413_1606)">
<path d="M7.99808 7.00006C8.55036 7.00006 8.99808 7.44778 8.99808 8.00006C8.99808 8.55235 8.55036 9.00006 7.99808 9.00006C7.44579 9.00006 6.99808 8.55235 6.99808 8.00006C6.99808 7.44778 7.44579 7.00006 7.99808 7.00006Z" fill="#101820" stroke="#101820" stroke-width="0.5"/>
<path d="M12.2491 7.00006C12.8014 7.00006 13.2491 7.44778 13.2491 8.00006C13.2491 8.55235 12.8014 9.00006 12.2491 9.00006C11.6969 9.00006 11.2491 8.55235 11.2491 8.00006C11.2491 7.44778 11.6969 7.00006 12.2491 7.00006Z" fill="#101820" stroke="#101820" stroke-width="0.5"/>
<path d="M3.74883 7.00006C4.30112 7.00006 4.74883 7.44778 4.74883 8.00006C4.74883 8.55235 4.30112 9.00006 3.74883 9.00006C3.19655 9.00006 2.74883 8.55235 2.74883 8.00006C2.74883 7.44778 3.19655 7.00006 3.74883 7.00006Z" fill="#101820" stroke="#101820" stroke-width="0.5"/>
</g>
<defs>
<clipPath id="clip0_413_1606">
<rect width="16" height="16" fill="white"/>
</clipPath>
</defs>
</svg>
