<svg width="110" height="40" viewBox="0 0 110 40" fill="none" xmlns="http://www.w3.org/2000/svg">
<path d="M24.5888 9.98428H21.2145C21.2145 13.3844 18.4558 16.1364 15.0474 16.1364V19.5024C20.3197 19.5081 24.5888 15.2437 24.5888 9.98428Z" fill="black"/>
<path d="M15.0474 20.4976V23.8636C18.4558 23.8636 21.2145 26.6212 21.2145 30.0214H24.5888C24.5945 24.7619 20.3197 20.4976 15.0474 20.4976Z" fill="black"/>
<path d="M28.9491 9.98428H25.5748C25.5748 15.2437 29.8497 19.5081 35.122 19.5081V16.1421C31.7135 16.1364 28.9491 13.3844 28.9491 9.98428Z" fill="black"/>
<path d="M25.5748 30.0214H28.9491C28.9491 26.6212 31.7078 23.8636 35.1163 23.8636V20.4976C29.8497 20.4976 25.5748 24.7619 25.5748 30.0214Z" fill="black"/>
<path d="M94.9583 16.4948C94.9583 16.2162 94.8557 16.1537 94.5992 16.1537C93.6588 16.1651 92.7183 16.1707 91.7836 16.1537C91.0882 16.1423 90.5296 16.3982 90.0394 16.8758C88.6658 18.2176 86.4144 20.4238 84.807 22.0044C83.7982 22.9995 83.0401 23.7443 82.909 23.8808L82.8634 23.9262H85.0521C85.1034 23.9262 85.149 23.9262 85.2003 23.9262C85.4226 23.9319 85.5822 23.858 85.7361 23.7045C87.5372 21.9419 89.344 20.1906 91.1509 18.4394C91.9317 17.6832 91.5955 17.8367 92.6727 17.8253C93.0318 17.8196 93.0318 17.8253 93.0318 18.1949V23.5396C93.0318 23.8751 93.0318 23.9206 93.2883 23.9262L94.7303 23.9319C94.9013 23.9092 94.9469 23.8068 94.9469 23.5908C94.9469 21.2198 94.9469 18.8602 94.9583 16.4948Z" fill="black"/>
<path d="M84.1686 16.1593C82.698 16.1593 81.2332 16.1593 79.7627 16.1593V16.165C78.2921 16.165 76.8273 16.1479 75.3567 16.1706C74.2795 16.1877 73.3447 17.0861 73.3333 18.1152C73.3105 19.9688 73.3276 21.8281 73.3219 23.6817C73.3219 23.8579 73.3789 23.9262 73.5613 23.9262H74.9292C75.1686 23.9318 75.2598 23.8579 75.2541 23.6134C75.2427 23.0221 75.2598 22.4308 75.2484 21.8394C75.2427 21.5836 75.3225 21.4812 75.5961 21.4869C76.5537 21.4983 77.5112 21.4926 78.4688 21.4926C80.0305 21.4926 81.5923 21.4869 83.154 21.4983C83.3934 21.4983 83.4846 21.4358 83.4732 21.1856V20.1621C83.4846 19.9119 83.4105 19.8267 83.1483 19.8323C82.0426 19.8437 80.9368 19.838 79.8311 19.838C78.4061 19.838 76.9869 19.8323 75.5619 19.8437C75.3339 19.8437 75.2427 19.7698 75.2484 19.5424C75.2598 19.2126 75.2541 18.8771 75.2541 18.5473C75.2541 17.9276 75.351 17.8309 75.9837 17.8309H84.123C84.5505 17.8309 84.5505 17.8309 84.5505 17.4215C84.5505 17.1259 84.5505 16.8302 84.5505 16.5345C84.5448 16.1706 84.5391 16.1593 84.1686 16.1593Z" fill="black"/>
<path d="M59.101 16.3981C59.158 16.2901 59.0782 16.1536 58.9528 16.1536H57.2771C57.1118 16.1536 56.9636 16.2446 56.8952 16.3924C56.5874 17.0179 55.7895 18.6554 55.761 18.718C55.5729 19.0989 55.2879 19.3036 54.8376 19.3036C53.1562 19.2922 51.4747 19.2922 49.7876 19.3036C49.5197 19.3036 49.4285 19.224 49.4342 18.9568C49.4456 18.1266 49.4342 17.2965 49.4399 16.4664C49.4399 16.2389 49.3601 16.1536 49.1321 16.1593H47.7642C47.5704 16.1536 47.5077 16.2276 47.5077 16.4152C47.5134 18.8317 47.5134 21.2539 47.5077 23.6703C47.5077 23.8637 47.5761 23.9262 47.7699 23.9262L49.1093 23.9319C49.3772 23.9433 49.4456 23.8409 49.4399 23.5964C49.4285 22.8288 49.4456 22.0612 49.4342 21.2993C49.4285 21.0492 49.5254 20.9582 49.7762 20.9582C51.4462 20.9639 53.122 20.9639 54.7977 20.9639C55.2537 20.9639 55.5729 21.1629 55.7667 21.5723C55.7952 21.6348 56.5133 23.1074 56.804 23.6931C56.8781 23.8409 57.0263 23.9319 57.1859 23.9319H58.8274C58.9528 23.9319 59.0326 23.8011 58.9756 23.6874L58.4228 22.6469L57.5564 21.0207C57.4196 20.7649 57.2828 20.5033 57.1517 20.2475C57.1232 20.1735 57.1232 20.0939 57.1574 20.0257C57.2372 19.8779 58.6565 17.2283 59.101 16.3981Z" fill="black"/>
<path d="M69.1725 16.1764H62.6178C61.3296 16.1764 60.2809 17.2226 60.2809 18.5076V21.6007C60.2809 22.8857 61.3296 23.9319 62.6178 23.9319H69.1725C70.4607 23.9319 71.5094 22.8857 71.5094 21.6007V18.5076C71.5094 17.2226 70.4607 16.1764 69.1725 16.1764ZM69.5772 21.6974C69.5772 22.1295 69.4233 22.2717 68.9787 22.2717C66.9268 22.2717 64.8692 22.2717 62.8173 22.2717C62.3727 22.2717 62.2131 22.1182 62.2131 21.669C62.2074 20.5887 62.2074 19.5083 62.2131 18.428C62.2131 17.9732 62.3613 17.8367 62.8173 17.8367C63.8489 17.8367 64.8806 17.8367 65.9123 17.8367C66.9325 17.8367 67.9585 17.8367 68.9787 17.8367C69.4404 17.8367 69.5715 17.9561 69.5715 18.4053C69.5829 19.5027 69.5829 20.6 69.5772 21.6974Z" fill="black"/>
</svg>
