<svg width="48" height="8" viewBox="0 0 48 8" fill="none" xmlns="http://www.w3.org/2000/svg">
<path d="M47.9583 0.494835C47.9583 0.216228 47.8557 0.153684 47.5992 0.153684C46.6588 0.165055 45.7183 0.170741 44.7836 0.153684C44.0882 0.142312 43.5296 0.398175 43.0394 0.875786C41.6658 2.21765 39.4144 4.42376 37.807 6.00443C36.7982 6.99946 36.0401 7.7443 35.909 7.88076L35.8634 7.92625H38.0521C38.1034 7.92625 38.149 7.92625 38.2003 7.92625C38.4226 7.93194 38.5822 7.85802 38.7361 7.7045C40.5372 5.94189 42.344 4.19064 44.1509 2.4394C44.9317 1.68318 44.5955 1.8367 45.6727 1.82533C46.0318 1.81964 46.0318 1.82533 46.0318 2.19491V7.53961C46.0318 7.87508 46.0318 7.92056 46.2883 7.92625L47.7303 7.93194C47.9013 7.90919 47.9469 7.80685 47.9469 7.59078C47.9469 5.21978 47.9469 2.86015 47.9583 0.494835Z" fill="black"/>
<path d="M37.1686 0.159279C35.698 0.159279 34.2332 0.159279 32.7627 0.159279V0.164964C31.2921 0.164964 29.8273 0.147906 28.3567 0.17065C27.2795 0.187707 26.3447 1.08607 26.3333 2.11521C26.3105 3.9688 26.3276 5.82808 26.3219 7.68167C26.3219 7.85793 26.3789 7.92616 26.5613 7.92616H27.9292C28.1686 7.93184 28.2598 7.85793 28.2541 7.61344C28.2427 7.02211 28.2598 6.43078 28.2484 5.83945C28.2427 5.58359 28.3225 5.48124 28.5961 5.48693C29.5537 5.4983 30.5112 5.49261 31.4688 5.49261C33.0305 5.49261 34.5923 5.48693 36.154 5.4983C36.3934 5.4983 36.4846 5.43575 36.4732 5.18558V4.16212C36.4846 3.91194 36.4105 3.82666 36.1483 3.83234C35.0426 3.84371 33.9368 3.83803 32.8311 3.83803C31.4061 3.83803 29.9869 3.83234 28.5619 3.84371C28.3339 3.84371 28.2427 3.7698 28.2484 3.54236C28.2598 3.21258 28.2541 2.87712 28.2541 2.54734C28.2541 1.92758 28.351 1.83092 28.9837 1.83092H37.123C37.5505 1.83092 37.5505 1.83092 37.5505 1.42154C37.5505 1.12587 37.5505 0.830209 37.5505 0.534544C37.5448 0.170649 37.5391 0.159279 37.1686 0.159279Z" fill="black"/>
<path d="M12.101 0.398134C12.158 0.290103 12.0782 0.153643 11.9528 0.153643H10.2771C10.1118 0.153643 9.96362 0.244615 9.89522 0.392448C9.58744 1.01789 8.78947 2.65542 8.76097 2.71796C8.57287 3.09892 8.28789 3.30361 7.8376 3.30361C6.15617 3.29224 4.47474 3.29224 2.7876 3.30361C2.51971 3.30361 2.42851 3.224 2.43421 2.95677C2.44561 2.12663 2.43422 1.2965 2.43992 0.466365C2.43992 0.238931 2.36012 0.153643 2.13213 0.159329H0.76418C0.570388 0.153643 0.50769 0.227559 0.50769 0.415192C0.51339 2.83168 0.51339 5.25386 0.50769 7.67034C0.50769 7.86366 0.576086 7.92621 0.769879 7.92621L2.10933 7.93189C2.37722 7.94327 2.44562 7.84092 2.43992 7.59643C2.42852 6.82884 2.44561 6.06125 2.43421 5.29934C2.42851 5.04917 2.52541 4.95819 2.7762 4.95819C4.44624 4.96388 6.12197 4.96388 7.79771 4.96388C8.25369 4.96388 8.57288 5.16288 8.76667 5.57226C8.79517 5.63481 9.51334 7.10745 9.80403 7.69309C9.87812 7.84092 10.0263 7.93189 10.1859 7.93189H11.8274C11.9528 7.93189 12.0326 7.80112 11.9756 7.6874L11.4228 6.64689L10.5564 5.02074C10.4196 4.76487 10.2828 4.50332 10.1517 4.24746C10.1232 4.17354 10.1232 4.09394 10.1574 4.02571C10.2372 3.87788 11.6565 1.22827 12.101 0.398134Z" fill="black"/>
<path d="M22.1725 0.176434H15.6178C14.3296 0.176434 13.2809 1.22263 13.2809 2.50764V5.60074C13.2809 6.88575 14.3296 7.93194 15.6178 7.93194H22.1725C23.4607 7.93194 24.5094 6.88575 24.5094 5.60074V2.50764C24.5094 1.22263 23.4607 0.176434 22.1725 0.176434ZM22.5772 5.6974C22.5772 6.12953 22.4233 6.27167 21.9787 6.27167C19.9268 6.27167 17.8692 6.27167 15.8173 6.27167C15.3727 6.27167 15.2131 6.11816 15.2131 5.66897C15.2074 4.58866 15.2074 3.50835 15.2131 2.42803C15.2131 1.97316 15.3613 1.8367 15.8173 1.8367C16.8489 1.8367 17.8806 1.8367 18.9123 1.8367C19.9325 1.8367 20.9585 1.8367 21.9787 1.8367C22.4404 1.8367 22.5715 1.95611 22.5715 2.40529C22.5829 3.50266 22.5829 4.60003 22.5772 5.6974Z" fill="black"/>
</svg>
