<svg width="67" height="14" viewBox="0 0 67 14" fill="none" xmlns="http://www.w3.org/2000/svg">
<path d="M1.808 1.12V9.557H6.215V11H0.131V1.12H1.808ZM10.3135 3.837C12.4715 3.837 13.3815 5.098 13.3815 6.528V6.554V11H11.7695V9.609C11.3275 10.532 10.7295 11.156 9.39045 11.156C8.06445 11.156 6.99845 10.207 6.99845 8.881C6.99845 7.256 8.57145 6.905 9.89745 6.775L11.7565 6.58V6.489V6.463C11.7565 5.644 11.2885 4.981 10.3135 4.981C9.44245 4.981 8.96145 5.501 8.87045 6.086H7.23245C7.40145 4.708 8.59745 3.837 10.3135 3.837ZM10.0145 10.129C11.1715 10.129 11.7565 9.193 11.7565 8.023V7.607L10.4955 7.737C9.61145 7.841 8.64945 7.971 8.64945 8.881C8.64945 9.674 9.27345 10.129 10.0145 10.129ZM17.7707 11.156C16.1327 11.156 14.8717 10.402 14.6637 8.92H16.3017C16.4707 9.765 17.1467 10.012 17.8097 10.012C18.7977 10.012 19.3177 9.661 19.3177 9.115C19.3177 8.582 18.9927 8.322 17.9787 8.114L16.8737 7.867C15.5997 7.594 14.8197 7.009 14.8197 5.943C14.8197 4.656 16.1197 3.837 17.7187 3.837C19.2007 3.837 20.4487 4.487 20.7477 5.787H19.1097C18.9277 5.267 18.3557 4.981 17.7317 4.981C17.0297 4.981 16.3927 5.28 16.3927 5.813C16.3927 6.294 16.8217 6.463 17.6667 6.645L18.7717 6.879C20.2407 7.191 20.8777 7.841 20.8777 8.959C20.8777 10.35 19.5647 11.156 17.7707 11.156ZM25.3762 9.791H26.1172V11H25.1032C23.8032 11 22.8022 10.363 22.8022 8.998V8.972V5.189H21.4242V3.993H22.8022V2.329H24.4272V3.993H26.0912V5.189H24.4272V8.894V8.92C24.4272 9.596 24.7782 9.791 25.3762 9.791ZM34.0674 11.156C31.8964 11.156 30.3364 9.96 30.0504 7.984H31.7924C31.9614 9.193 32.8974 9.791 34.1064 9.791C35.6794 9.791 36.5504 9.167 36.5504 8.27C36.5504 7.334 35.8354 7.087 34.3794 6.762L33.0534 6.476C31.4544 6.125 30.3494 5.319 30.3494 3.798C30.3494 2.16 31.9744 0.964 34.0414 0.964C36.2904 0.964 37.6814 2.095 37.9674 3.72H36.2254C35.9394 2.745 35.1334 2.329 34.0414 2.329C32.9234 2.329 32.0264 2.836 32.0264 3.642C32.0264 4.461 32.6114 4.734 34.0544 5.059L35.3674 5.345C37.2914 5.774 38.2144 6.541 38.2144 8.088C38.2144 9.947 36.5634 11.156 34.0674 11.156ZM47.238 10.831L48.694 3.993H50.215L48.707 11H45.769L44.625 4.149L43.481 11H40.543L39.035 3.993H40.556L42.012 10.831L43.182 3.993H46.068L47.238 10.831ZM54.3154 3.837C56.4734 3.837 57.3834 5.098 57.3834 6.528V6.554V11H55.7714V9.609C55.3294 10.532 54.7314 11.156 53.3924 11.156C52.0664 11.156 51.0004 10.207 51.0004 8.881C51.0004 7.256 52.5734 6.905 53.8994 6.775L55.7584 6.58V6.489V6.463C55.7584 5.644 55.2904 4.981 54.3154 4.981C53.4444 4.981 52.9634 5.501 52.8724 6.086H51.2344C51.4034 4.708 52.5994 3.837 54.3154 3.837ZM54.0164 10.129C55.1734 10.129 55.7584 9.193 55.7584 8.023V7.607L54.4974 7.737C53.6134 7.841 52.6514 7.971 52.6514 8.881C52.6514 9.674 53.2754 10.129 54.0164 10.129ZM63.1636 3.837C64.8666 3.837 66.1016 5.358 66.1016 7.49C66.1016 9.622 64.8796 11.156 63.1636 11.156C62.0976 11.156 61.1616 10.467 60.7586 9.505V13.548H59.1466V3.993H60.7586V5.644C61.0836 4.708 61.8896 3.837 63.1636 3.837ZM62.5786 10.012C63.7876 10.012 64.4506 9.037 64.4506 7.49C64.4506 5.956 63.7876 4.981 62.5786 4.981C61.3826 4.981 60.7066 5.956 60.7066 7.49C60.7066 9.037 61.3826 10.012 62.5786 10.012Z" fill="#101820"/>
</svg>
