<svg width="17" height="16" viewBox="0 0 17 16" fill="none" xmlns="http://www.w3.org/2000/svg">
<g clip-path="url(#clip0_413_1595)">
<path d="M14.9925 10.9425C14.8811 11.7894 14.4651 12.5668 13.8224 13.1294C13.1797 13.6921 12.3542 14.0015 11.5 14C6.53751 14 2.50001 9.9625 2.50001 5C2.49847 4.1458 2.80794 3.32026 3.37059 2.67756C3.93324 2.03485 4.71061 1.61894 5.55751 1.5075C5.77166 1.48135 5.98854 1.52516 6.17575 1.63239C6.36296 1.73963 6.51047 1.90454 6.59626 2.1025L7.91626 5.04937V5.05687C7.98194 5.2084 8.00906 5.37385 7.99521 5.53842C7.98136 5.70299 7.92696 5.86157 7.83688 6C7.82563 6.01687 7.81376 6.0325 7.80126 6.04812L6.50001 7.59062C6.96813 8.54187 7.96313 9.52812 8.92688 9.9975L10.4481 8.70312C10.4631 8.69056 10.4787 8.67888 10.495 8.66812C10.6333 8.57587 10.7924 8.51956 10.958 8.50428C11.1235 8.48901 11.2903 8.51524 11.4431 8.58062L11.4513 8.58437L14.3956 9.90375C14.5939 9.98923 14.7592 10.1366 14.8668 10.3238C14.9744 10.5111 15.0185 10.7281 14.9925 10.9425Z" fill="#585E63"/>
</g>
<defs>
<clipPath id="clip0_413_1595">
<rect width="16" height="16" fill="white" transform="translate(0.5)"/>
</clipPath>
</defs>
</svg>
