<svg width="97" height="11" viewBox="0 0 97 11" fill="none" xmlns="http://www.w3.org/2000/svg">
<path d="M0.631 0.119999H4.401C6.858 0.119999 8.288 1.277 8.288 3.279C8.288 5.281 6.858 6.438 4.401 6.438H2.308V10H0.631V0.119999ZM2.308 5.008H4.44C5.805 5.008 6.546 4.423 6.546 3.279C6.546 2.135 5.805 1.563 4.44 1.563H2.308V5.008ZM13.4113 2.837C15.0233 2.837 15.7903 4.033 15.7903 5.593V5.619V10H14.1653V5.931V5.905C14.1653 4.579 13.6063 3.994 12.6833 3.994C11.7733 3.994 11.2013 4.592 11.2013 5.931V10H9.57632V0.119999H11.1883V4.423C11.5133 3.565 12.2023 2.837 13.4113 2.837ZM20.6944 10.156C18.5364 10.156 17.1714 8.661 17.1714 6.49C17.1714 4.332 18.5364 2.837 20.6944 2.837C22.8654 2.837 24.2304 4.332 24.2304 6.49C24.2304 8.661 22.8654 10.156 20.6944 10.156ZM20.6944 9.012C21.9034 9.012 22.5664 8.037 22.5664 6.49C22.5664 4.956 21.9034 3.981 20.6944 3.981C19.4984 3.981 18.8224 4.956 18.8224 6.49C18.8224 8.037 19.4984 9.012 20.6944 9.012ZM29.4963 2.837C31.1083 2.837 31.8753 4.033 31.8753 5.593V5.619V10H30.2503V5.931V5.905C30.2503 4.579 29.6913 3.994 28.7683 3.994C27.8583 3.994 27.2863 4.592 27.2863 5.931V10H25.6613V2.993H27.2733V4.423C27.5983 3.565 28.2873 2.837 29.4963 2.837ZM40.1203 6.451C40.1203 6.607 40.1073 6.789 40.0813 6.971H34.9073C35.0373 8.323 35.7263 9.012 36.7143 9.012C37.6113 9.012 38.0663 8.609 38.3133 7.933H39.9643C39.5223 9.428 38.3393 10.156 36.7013 10.156C34.5563 10.156 33.2563 8.622 33.2563 6.49C33.2563 4.345 34.5953 2.837 36.7013 2.837C38.7683 2.837 40.1203 4.267 40.1203 6.451ZM36.7013 3.981C35.7523 3.981 35.0893 4.579 34.9203 5.84H38.4563C38.3783 4.722 37.7023 3.981 36.7013 3.981ZM52.1016 9.805V0.119999H53.7786V10H50.4376L46.5766 0.314999V10H44.8996V0.119999H48.2406L52.1016 9.805ZM60.2082 7.062V2.993H61.8332V10H60.2212V8.609C59.9092 9.441 59.2462 10.156 58.0372 10.156C56.4382 10.156 55.6842 8.947 55.6842 7.387V7.361V2.993H57.3092V7.062V7.088C57.3092 8.401 57.8422 8.986 58.7652 8.986C59.6882 8.986 60.2082 8.375 60.2082 7.062ZM71.8214 2.837C73.3814 2.837 74.1094 3.994 74.1094 5.593V5.619V10H72.4844V5.931V5.905C72.4844 4.592 72.0164 3.994 71.1064 3.994C70.1834 3.994 69.7154 4.592 69.7154 5.931V10H68.0904V5.931V5.905C68.0904 4.592 67.6224 3.994 66.7124 3.994C65.7894 3.994 65.3214 4.592 65.3214 5.931V10H63.6964V2.993H65.3084V4.436C65.6204 3.591 66.2574 2.837 67.4404 2.837C68.6494 2.837 69.3514 3.669 69.6114 4.566C69.8974 3.708 70.5734 2.837 71.8214 2.837ZM79.9136 2.837C81.6166 2.837 82.8516 4.358 82.8516 6.49C82.8516 8.622 81.6296 10.156 79.9136 10.156C78.8476 10.156 77.9116 9.467 77.5086 8.505V10H75.8966V0.119999H77.5086V4.644C77.8336 3.708 78.6396 2.837 79.9136 2.837ZM79.3286 9.012C80.5376 9.012 81.2006 8.037 81.2006 6.49C81.2006 4.956 80.5376 3.981 79.3286 3.981C78.1326 3.981 77.4566 4.956 77.4566 6.49C77.4566 8.037 78.1326 9.012 79.3286 9.012ZM90.7746 6.451C90.7746 6.607 90.7616 6.789 90.7356 6.971H85.5616C85.6916 8.323 86.3806 9.012 87.3686 9.012C88.2656 9.012 88.7206 8.609 88.9676 7.933H90.6186C90.1766 9.428 88.9936 10.156 87.3556 10.156C85.2106 10.156 83.9106 8.622 83.9106 6.49C83.9106 4.345 85.2496 2.837 87.3556 2.837C89.4226 2.837 90.7746 4.267 90.7746 6.451ZM87.3556 3.981C86.4066 3.981 85.7436 4.579 85.5746 5.84H89.1106C89.0326 4.722 88.3566 3.981 87.3556 3.981ZM93.8221 2.993V4.696C94.0951 3.643 94.7971 2.837 96.1491 2.837V4.436H95.7071C94.4461 4.436 93.8351 4.852 93.8351 6.074V10H92.2101V2.993H93.8221Z" fill="#101820"/>
</svg>
