<svg width="35" height="16" viewBox="0 0 35 16" fill="none" xmlns="http://www.w3.org/2000/svg">
<g clip-path="url(#clip0_413_1722)">
<path d="M13.4997 2.5H3.49969C3.22355 2.5 2.99969 2.72386 2.99969 3V13C2.99969 13.2761 3.22355 13.5 3.49969 13.5H13.4997C13.7758 13.5 13.9997 13.2761 13.9997 13V3C13.9997 2.72386 13.7758 2.5 13.4997 2.5Z" stroke="#ABAEB1" stroke-width="0.998841" stroke-linecap="round" stroke-linejoin="round"/>
<path d="M5.99945 8H10.9995" stroke="#ABAEB1" stroke-width="0.998841" stroke-linecap="square" stroke-linejoin="round"/>
</g>
<g clip-path="url(#clip1_413_1722)">
<path d="M31.5 2H21.5C21.2348 2 20.9804 2.10536 20.7929 2.29289C20.6054 2.48043 20.5 2.73478 20.5 3V13C20.5 13.2652 20.6054 13.5196 20.7929 13.7071C20.9804 13.8946 21.2348 14 21.5 14H31.5C31.7652 14 32.0196 13.8946 32.2071 13.7071C32.3946 13.5196 32.5 13.2652 32.5 13V3C32.5 2.73478 32.3946 2.48043 32.2071 2.29289C32.0196 2.10536 31.7652 2 31.5 2ZM29 8.5H27V10.5C27 10.6326 26.9473 10.7598 26.8536 10.8536C26.7598 10.9473 26.6326 11 26.5 11C26.3674 11 26.2402 10.9473 26.1464 10.8536C26.0527 10.7598 26 10.6326 26 10.5V8.5H24C23.8674 8.5 23.7402 8.44732 23.6464 8.35355C23.5527 8.25979 23.5 8.13261 23.5 8C23.5 7.86739 23.5527 7.74021 23.6464 7.64645C23.7402 7.55268 23.8674 7.5 24 7.5H26V5.5C26 5.36739 26.0527 5.24021 26.1464 5.14645C26.2402 5.05268 26.3674 5 26.5 5C26.6326 5 26.7598 5.05268 26.8536 5.14645C26.9473 5.24021 27 5.36739 27 5.5V7.5H29C29.1326 7.5 29.2598 7.55268 29.3536 7.64645C29.4473 7.74021 29.5 7.86739 29.5 8C29.5 8.13261 29.4473 8.25979 29.3536 8.35355C29.2598 8.44732 29.1326 8.5 29 8.5Z" fill="#101820"/>
</g>
<defs>
<clipPath id="clip0_413_1722">
<rect width="16" height="16" fill="white" transform="translate(0.5)"/>
</clipPath>
<clipPath id="clip1_413_1722">
<rect width="16" height="16" fill="white" transform="translate(18.5)"/>
</clipPath>
</defs>
</svg>
