<svg width="111" height="14" viewBox="0 0 111 14" fill="none" xmlns="http://www.w3.org/2000/svg">
<path d="M8.6 11H6.663L4.401 7.139H2.308V11H0.631V1.12H4.414C6.689 1.12 8.119 2.303 8.119 4.136C8.119 5.449 7.391 6.437 6.117 6.879L8.6 11ZM4.453 2.563H2.308V5.709H4.453C5.662 5.709 6.39 5.137 6.39 4.136C6.39 3.135 5.662 2.563 4.453 2.563ZM16.0119 7.451C16.0119 7.607 15.9989 7.789 15.9729 7.971H10.7989C10.9289 9.323 11.6179 10.012 12.6059 10.012C13.5029 10.012 13.9579 9.609 14.2049 8.933H15.8559C15.4139 10.428 14.2309 11.156 12.5929 11.156C10.4479 11.156 9.14793 9.622 9.14793 7.49C9.14793 5.345 10.4869 3.837 12.5929 3.837C14.6599 3.837 16.0119 5.267 16.0119 7.451ZM12.5929 4.981C11.6439 4.981 10.9809 5.579 10.8119 6.84H14.3479C14.2699 5.722 13.5939 4.981 12.5929 4.981ZM25.5724 3.837C27.1324 3.837 27.8604 4.994 27.8604 6.593V6.619V11H26.2354V6.931V6.905C26.2354 5.592 25.7674 4.994 24.8574 4.994C23.9344 4.994 23.4664 5.592 23.4664 6.931V11H21.8414V6.931V6.905C21.8414 5.592 21.3734 4.994 20.4634 4.994C19.5404 4.994 19.0724 5.592 19.0724 6.931V11H17.4474V3.993H19.0594V5.436C19.3714 4.591 20.0084 3.837 21.1914 3.837C22.4004 3.837 23.1024 4.669 23.3624 5.566C23.6484 4.708 24.3244 3.837 25.5724 3.837ZM32.5986 3.837C34.7566 3.837 35.6666 5.098 35.6666 6.528V6.554V11H34.0546V9.609C33.6126 10.532 33.0146 11.156 31.6756 11.156C30.3496 11.156 29.2836 10.207 29.2836 8.881C29.2836 7.256 30.8566 6.905 32.1826 6.775L34.0416 6.58V6.489V6.463C34.0416 5.644 33.5736 4.981 32.5986 4.981C31.7276 4.981 31.2466 5.501 31.1556 6.086H29.5176C29.6866 4.708 30.8826 3.837 32.5986 3.837ZM32.2996 10.129C33.4566 10.129 34.0416 9.193 34.0416 8.023V7.607L32.7806 7.737C31.8966 7.841 30.9346 7.971 30.9346 8.881C30.9346 9.674 31.5586 10.129 32.2996 10.129ZM39.0938 2.914H37.3908V1.12H39.0938V2.914ZM39.0548 11H37.4298V3.993H39.0548V11ZM44.7434 3.837C46.3554 3.837 47.1224 5.033 47.1224 6.593V6.619V11H45.4974V6.931V6.905C45.4974 5.579 44.9384 4.994 44.0154 4.994C43.1054 4.994 42.5334 5.592 42.5334 6.931V11H40.9084V3.993H42.5204V5.423C42.8454 4.565 43.5344 3.837 44.7434 3.837ZM50.5704 2.914H48.8674V1.12H50.5704V2.914ZM50.5314 11H48.9064V3.993H50.5314V11ZM56.2199 3.837C57.8319 3.837 58.5989 5.033 58.5989 6.593V6.619V11H56.9739V6.931V6.905C56.9739 5.579 56.4149 4.994 55.4919 4.994C54.5819 4.994 54.0099 5.592 54.0099 6.931V11H52.3849V3.993H53.9969V5.423C54.3219 4.565 55.0109 3.837 56.2199 3.837ZM65.362 5.605V3.993H66.974V10.948C66.974 12.937 65.284 13.704 63.659 13.704C61.982 13.704 60.539 12.937 60.357 11.377H61.995C62.138 12.157 62.827 12.56 63.659 12.56C64.608 12.56 65.362 12.053 65.362 10.987V9.349C64.972 10.298 64.023 10.948 62.957 10.948C61.241 10.948 60.019 9.531 60.019 7.386C60.019 5.254 61.254 3.837 62.957 3.837C64.231 3.837 65.05 4.682 65.362 5.605ZM63.542 9.804C64.751 9.804 65.427 8.907 65.427 7.386C65.427 5.878 64.751 4.981 63.542 4.981C62.346 4.981 61.683 5.878 61.683 7.386C61.683 8.907 62.346 9.804 63.542 9.804ZM80.3077 9.258L82.2707 11H80.0997L79.2937 10.285C78.5137 10.844 77.5387 11.156 76.4207 11.156C73.5737 11.156 71.5977 9.128 71.5977 6.06C71.5977 2.992 73.5737 0.964 76.4207 0.964C79.2677 0.964 81.2437 2.992 81.2437 6.06C81.2437 7.321 80.9057 8.413 80.3077 9.258ZM76.4207 9.791C77.0837 9.791 77.6557 9.596 78.1367 9.258L76.1217 7.464H78.2927L79.0597 8.14C79.3457 7.568 79.5017 6.853 79.5017 6.06C79.5017 3.837 78.2667 2.329 76.4207 2.329C74.5747 2.329 73.3397 3.837 73.3397 6.06C73.3397 8.283 74.5747 9.791 76.4207 9.791ZM87.3254 8.062V3.993H88.9504V11H87.3384V9.609C87.0264 10.441 86.3634 11.156 85.1544 11.156C83.5554 11.156 82.8014 9.947 82.8014 8.387V8.361V3.993H84.4264V8.062V8.088C84.4264 9.401 84.9594 9.986 85.8824 9.986C86.8054 9.986 87.3254 9.375 87.3254 8.062ZM93.9336 11.156C91.7756 11.156 90.4106 9.661 90.4106 7.49C90.4106 5.332 91.7756 3.837 93.9336 3.837C96.1046 3.837 97.4696 5.332 97.4696 7.49C97.4696 9.661 96.1046 11.156 93.9336 11.156ZM93.9336 10.012C95.1426 10.012 95.8056 9.037 95.8056 7.49C95.8056 5.956 95.1426 4.981 93.9336 4.981C92.7376 4.981 92.0616 5.956 92.0616 7.49C92.0616 9.037 92.7376 10.012 93.9336 10.012ZM101.972 9.791H102.713V11H101.699C100.399 11 99.3979 10.363 99.3979 8.998V8.972V5.189H98.0199V3.993H99.3979V2.329H101.023V3.993H102.687V5.189H101.023V8.894V8.92C101.023 9.596 101.374 9.791 101.972 9.791ZM106.942 3.837C109.1 3.837 110.01 5.098 110.01 6.528V6.554V11H108.398V9.609C107.956 10.532 107.358 11.156 106.019 11.156C104.693 11.156 103.627 10.207 103.627 8.881C103.627 7.256 105.2 6.905 106.526 6.775L108.385 6.58V6.489V6.463C108.385 5.644 107.917 4.981 106.942 4.981C106.071 4.981 105.59 5.501 105.499 6.086H103.861C104.03 4.708 105.226 3.837 106.942 3.837ZM106.643 10.129C107.8 10.129 108.385 9.193 108.385 8.023V7.607L107.124 7.737C106.24 7.841 105.278 7.971 105.278 8.881C105.278 9.674 105.902 10.129 106.643 10.129Z" fill="#101820"/>
</svg>
