<svg width="34" height="11" viewBox="0 0 34 11" fill="none" xmlns="http://www.w3.org/2000/svg">
<path d="M8.1 10H6.163L3.901 6.139H1.808V10H0.131V0.119999H3.914C6.189 0.119999 7.619 1.303 7.619 3.136C7.619 4.449 6.891 5.437 5.617 5.879L8.1 10ZM3.953 1.563H1.808V4.709H3.953C5.162 4.709 5.89 4.137 5.89 3.136C5.89 2.135 5.162 1.563 3.953 1.563ZM10.9942 1.914H9.29123V0.119999H10.9942V1.914ZM10.9552 10H9.33023V2.993H10.9552V10ZM17.7617 4.644V0.119999H19.3737V10H17.7617V8.505C17.3587 9.467 16.4227 10.156 15.3567 10.156C13.6407 10.156 12.4187 8.622 12.4187 6.49C12.4187 4.358 13.6537 2.837 15.3567 2.837C16.6307 2.837 17.4497 3.708 17.7617 4.644ZM15.9417 9.012C17.1507 9.012 17.8137 8.037 17.8137 6.49C17.8137 4.956 17.1507 3.981 15.9417 3.981C14.7327 3.981 14.0697 4.956 14.0697 6.49C14.0697 8.037 14.7327 9.012 15.9417 9.012ZM27.6867 6.451C27.6867 6.607 27.6737 6.789 27.6477 6.971H22.4737C22.6037 8.323 23.2927 9.012 24.2807 9.012C25.1777 9.012 25.6327 8.609 25.8797 7.933H27.5307C27.0887 9.428 25.9057 10.156 24.2677 10.156C22.1227 10.156 20.8227 8.622 20.8227 6.49C20.8227 4.345 22.1617 2.837 24.2677 2.837C26.3347 2.837 27.6867 4.267 27.6867 6.451ZM24.2677 3.981C23.3187 3.981 22.6557 4.579 22.4867 5.84H26.0227C25.9447 4.722 25.2687 3.981 24.2677 3.981ZM30.7342 2.993V4.696C31.0072 3.643 31.7092 2.837 33.0612 2.837V4.436H32.6192C31.3582 4.436 30.7472 4.852 30.7472 6.074V10H29.1222V2.993H30.7342Z" fill="#101820"/>
</svg>
