<svg width="20" height="20" viewBox="0 0 20 20" fill="none" xmlns="http://www.w3.org/2000/svg">
<g clip-path="url(#clip0_149_22522)">
<path d="M16.875 3.125H3.125C2.79348 3.125 2.47554 3.2567 2.24112 3.49112C2.0067 3.72554 1.875 4.04348 1.875 4.375V15.625C1.875 15.9565 2.0067 16.2745 2.24112 16.5089C2.47554 16.7433 2.79348 16.875 3.125 16.875H16.875C17.2065 16.875 17.5245 16.7433 17.7589 16.5089C17.9933 16.2745 18.125 15.9565 18.125 15.625V4.375C18.125 4.04348 17.9933 3.72554 17.7589 3.49112C17.5245 3.2567 17.2065 3.125 16.875 3.125ZM5 11.875H3.75C3.58424 11.875 3.42527 11.8092 3.30806 11.6919C3.19085 11.5747 3.125 11.4158 3.125 11.25C3.125 11.0842 3.19085 10.9253 3.30806 10.8081C3.42527 10.6908 3.58424 10.625 3.75 10.625H5C5.16576 10.625 5.32473 10.6908 5.44194 10.8081C5.55915 10.9253 5.625 11.0842 5.625 11.25C5.625 11.4158 5.55915 11.5747 5.44194 11.6919C5.32473 11.8092 5.16576 11.875 5 11.875ZM5 9.375H3.75C3.58424 9.375 3.42527 9.30915 3.30806 9.19194C3.19085 9.07473 3.125 8.91576 3.125 8.75C3.125 8.58424 3.19085 8.42527 3.30806 8.30806C3.42527 8.19085 3.58424 8.125 3.75 8.125H5C5.16576 8.125 5.32473 8.19085 5.44194 8.30806C5.55915 8.42527 5.625 8.58424 5.625 8.75C5.625 8.91576 5.55915 9.07473 5.44194 9.19194C5.32473 9.30915 5.16576 9.375 5 9.375ZM5 6.875H3.75C3.58424 6.875 3.42527 6.80915 3.30806 6.69194C3.19085 6.57473 3.125 6.41576 3.125 6.25C3.125 6.08424 3.19085 5.92527 3.30806 5.80806C3.42527 5.69085 3.58424 5.625 3.75 5.625H5C5.16576 5.625 5.32473 5.69085 5.44194 5.80806C5.55915 5.92527 5.625 6.08424 5.625 6.25C5.625 6.41576 5.55915 6.57473 5.44194 6.69194C5.32473 6.80915 5.16576 6.875 5 6.875ZM16.875 15.625H6.875V4.375H16.875V15.625Z" fill="#101820"/>
</g>
<defs>
<clipPath id="clip0_149_22522">
<rect width="20" height="20" fill="white"/>
</clipPath>
</defs>
</svg>
