<svg width="16" height="16" viewBox="0 0 16 16" fill="none" xmlns="http://www.w3.org/2000/svg">
<g clip-path="url(#clip0_413_1600)">
<path d="M14 3V9.5C14 9.76522 13.8946 10.0196 13.7071 10.2071C13.5196 10.3946 13.2652 10.5 13 10.5H7V11.5C7.00008 11.5989 6.9708 11.6957 6.91586 11.778C6.86092 11.8603 6.78281 11.9244 6.6914 11.9623C6.59998 12.0002 6.49939 12.0101 6.40235 11.9908C6.3053 11.9714 6.21618 11.9238 6.14625 11.8538L4.64625 10.3538C4.59976 10.3073 4.56288 10.2522 4.53772 10.1915C4.51256 10.1308 4.49961 10.0657 4.49961 10C4.49961 9.93429 4.51256 9.86923 4.53772 9.80853C4.56288 9.74783 4.59976 9.69269 4.64625 9.64625L6.14625 8.14625C6.21618 8.07624 6.3053 8.02856 6.40235 8.00924C6.49939 7.98991 6.59998 7.99981 6.6914 8.03769C6.78281 8.07557 6.86092 8.13971 6.91586 8.22201C6.9708 8.30431 7.00008 8.40105 7 8.5V9.5H13V3H6V3.5C6 3.63261 5.94732 3.75979 5.85355 3.85355C5.75979 3.94732 5.63261 4 5.5 4C5.36739 4 5.24021 3.94732 5.14645 3.85355C5.05268 3.75979 5 3.63261 5 3.5V3C5 2.73478 5.10536 2.48043 5.29289 2.29289C5.48043 2.10536 5.73478 2 6 2H13C13.2652 2 13.5196 2.10536 13.7071 2.29289C13.8946 2.48043 14 2.73478 14 3ZM10.5 12C10.3674 12 10.2402 12.0527 10.1464 12.1464C10.0527 12.2402 10 12.3674 10 12.5V13H3V6.5H9V7.5C8.99992 7.59895 9.0292 7.69569 9.08414 7.77799C9.13908 7.86029 9.21719 7.92444 9.30861 7.96231C9.40002 8.00019 9.50061 8.01009 9.59765 7.99076C9.6947 7.97144 9.78382 7.92376 9.85375 7.85375L11.3538 6.35375C11.4002 6.30731 11.4371 6.25217 11.4623 6.19147C11.4874 6.13077 11.5004 6.06571 11.5004 6C11.5004 5.93429 11.4874 5.86923 11.4623 5.80853C11.4371 5.74783 11.4002 5.69269 11.3538 5.64625L9.85375 4.14625C9.78382 4.07624 9.6947 4.02856 9.59765 4.00924C9.50061 3.98991 9.40002 3.99981 9.30861 4.03769C9.21719 4.07556 9.13908 4.13971 9.08414 4.22201C9.0292 4.30431 8.99992 4.40105 9 4.5V5.5H3C2.73478 5.5 2.48043 5.60536 2.29289 5.79289C2.10536 5.98043 2 6.23478 2 6.5V13C2 13.2652 2.10536 13.5196 2.29289 13.7071C2.48043 13.8946 2.73478 14 3 14H10C10.2652 14 10.5196 13.8946 10.7071 13.7071C10.8946 13.5196 11 13.2652 11 13V12.5C11 12.3674 10.9473 12.2402 10.8536 12.1464C10.7598 12.0527 10.6326 12 10.5 12Z" fill="#585E63"/>
</g>
<defs>
<clipPath id="clip0_413_1600">
<rect width="16" height="16" fill="white"/>
</clipPath>
</defs>
</svg>
