<svg width="16" height="16" viewBox="0 0 16 16" fill="none" xmlns="http://www.w3.org/2000/svg">
<g clip-path="url(#clip0_413_1590)">
<path d="M14.4331 13.75C14.3892 13.826 14.3261 13.8892 14.25 13.933C14.174 13.9769 14.0878 14 14 14H1.99998C1.91225 13.9999 1.82609 13.9767 1.75016 13.9328C1.67422 13.8889 1.61117 13.8258 1.56735 13.7498C1.52352 13.6738 1.50047 13.5876 1.50049 13.4999C1.50051 13.4122 1.52361 13.326 1.56748 13.25C2.51935 11.6044 3.98623 10.4244 5.6981 9.86501C4.85133 9.36092 4.19344 8.59281 3.82547 7.67863C3.45749 6.76445 3.39978 5.75476 3.66119 4.8046C3.9226 3.85445 4.48868 3.01638 5.27249 2.41908C6.05631 1.82179 7.01452 1.49831 7.99998 1.49831C8.98543 1.49831 9.94365 1.82179 10.7275 2.41908C11.5113 3.01638 12.0774 3.85445 12.3388 4.8046C12.6002 5.75476 12.5425 6.76445 12.1745 7.67863C11.8065 8.59281 11.1486 9.36092 10.3019 9.86501C12.0137 10.4244 13.4806 11.6044 14.4325 13.25C14.4765 13.326 14.4997 13.4122 14.4998 13.4999C14.4999 13.5877 14.4769 13.6739 14.4331 13.75Z" fill="#585E63"/>
</g>
<defs>
<clipPath id="clip0_413_1590">
<rect width="16" height="16" fill="white"/>
</clipPath>
</defs>
</svg>
