<svg width="16" height="11" viewBox="0 0 16 11" fill="none" xmlns="http://www.w3.org/2000/svg">
<path d="M4.00751 6.2375C4.0092 6.27136 4.00399 6.30522 3.99219 6.33701C3.98039 6.3688 3.96224 6.39785 3.93885 6.42241C3.91547 6.44697 3.88733 6.46651 3.85616 6.47984C3.82498 6.49318 3.79142 6.50004 3.75751 6.5H1.00001C0.887154 6.50017 0.777562 6.46216 0.689053 6.39214C0.600543 6.32213 0.538322 6.22423 0.512507 6.11437C0.496432 6.03918 0.497174 5.96136 0.514677 5.88648C0.53218 5.81161 0.566014 5.74152 0.613757 5.68125C1.05489 5.09623 1.64019 4.63562 2.31251 4.34437C2.01734 4.07525 1.79095 3.73931 1.6523 3.36471C1.51366 2.9901 1.4668 2.58772 1.51564 2.19128C1.56448 1.79483 1.70761 1.41587 1.93303 1.08611C2.15845 0.756356 2.45961 0.485417 2.81128 0.295985C3.16294 0.106553 3.55488 0.00414387 3.95426 -0.00266552C4.35365 -0.00947492 4.74885 0.0795136 5.10676 0.256847C5.46468 0.434181 5.7749 0.694696 6.01143 1.01657C6.24797 1.33845 6.40393 1.71232 6.46626 2.10687C6.47431 2.15993 6.4648 2.21416 6.43919 2.26132C6.41358 2.30848 6.37327 2.34598 6.32438 2.36812C5.63088 2.68873 5.04355 3.20102 4.6317 3.84454C4.21985 4.48807 4.00066 5.23597 4.00001 6C4.00001 6.08 4.00001 6.15875 4.00751 6.2375ZM15.3825 5.68062C14.9424 5.09629 14.3584 4.63592 13.6875 4.34437C13.9827 4.07525 14.2091 3.73931 14.3477 3.36471C14.4864 2.9901 14.5332 2.58772 14.4844 2.19128C14.4355 1.79483 14.2924 1.41587 14.067 1.08611C13.8416 0.756356 13.5404 0.485417 13.1887 0.295985C12.8371 0.106553 12.4451 0.00414387 12.0458 -0.00266552C11.6464 -0.00947492 11.2512 0.0795136 10.8932 0.256847C10.5353 0.434181 10.2251 0.694696 9.98858 1.01657C9.75205 1.33845 9.59609 1.71232 9.53376 2.10687C9.52571 2.15993 9.53521 2.21416 9.56082 2.26132C9.58643 2.30848 9.62675 2.34598 9.67563 2.36812C10.3691 2.68873 10.9565 3.20102 11.3683 3.84454C11.7802 4.48807 11.9994 5.23597 12 6C12 6.08 12 6.15875 11.9925 6.2375C11.9908 6.27136 11.996 6.30522 12.0078 6.33701C12.0196 6.3688 12.0378 6.39785 12.0612 6.42241C12.0845 6.44697 12.1127 6.46651 12.1439 6.47984C12.175 6.49318 12.2086 6.50004 12.2425 6.5H15C15.1129 6.50017 15.2225 6.46216 15.311 6.39214C15.3995 6.32213 15.4617 6.22423 15.4875 6.11437C15.5037 6.03904 15.5029 5.96106 15.4853 5.88605C15.4677 5.81104 15.4337 5.74088 15.3856 5.68062H15.3825ZM9.82001 8.37937C10.3178 7.9981 10.6837 7.47041 10.8662 6.87047C11.0486 6.27053 11.0385 5.6285 10.8372 5.03462C10.6359 4.44073 10.2536 3.92485 9.74395 3.55948C9.23432 3.1941 8.62301 2.99761 7.99594 2.99761C7.36887 2.99761 6.75757 3.1941 6.24794 3.55948C5.73832 3.92485 5.35599 4.44073 5.1547 5.03462C4.95342 5.6285 4.94328 6.27053 5.12573 6.87047C5.30818 7.47041 5.67404 7.9981 6.17188 8.37937C5.28847 8.76214 4.5508 9.41768 4.06688 10.25C4.02299 10.326 3.99989 10.4122 3.99989 10.5C3.9999 10.5878 4.02301 10.674 4.06691 10.75C4.11081 10.8261 4.17394 10.8892 4.24997 10.9331C4.32599 10.9769 4.41223 11 4.50001 11H11.5C11.5878 11 11.674 10.9769 11.75 10.9331C11.8261 10.8892 11.8892 10.8261 11.9331 10.75C11.977 10.674 12.0001 10.5878 12.0001 10.5C12.0001 10.4122 11.977 10.326 11.9331 10.25C11.4482 9.41713 10.7091 8.76155 9.82438 8.37937H9.82001Z" fill="white"/>
</svg>
