<svg width="110" height="40" viewBox="0 0 110 40" fill="none" xmlns="http://www.w3.org/2000/svg">
<path d="M24.5888 9.98428H21.2145C21.2145 13.3844 18.4558 16.1364 15.0474 16.1364V19.5024C20.3197 19.5081 24.5888 15.2437 24.5888 9.98428Z" fill="white"/>
<path d="M15.0474 20.4976V23.8636C18.4558 23.8636 21.2145 26.6212 21.2145 30.0214H24.5888C24.5945 24.7619 20.3197 20.4976 15.0474 20.4976Z" fill="white"/>
<path d="M28.9492 9.98428H25.575C25.575 15.2437 29.8498 19.5081 35.1221 19.5081V16.1421C31.7136 16.1364 28.9492 13.3844 28.9492 9.98428Z" fill="white"/>
<path d="M25.575 30.0214H28.9492C28.9492 26.6212 31.7079 23.8636 35.1164 23.8636V20.4976C29.8498 20.4976 25.575 24.7619 25.575 30.0214Z" fill="white"/>
<path d="M94.9582 16.4948C94.9582 16.2162 94.8556 16.1537 94.5991 16.1537C93.6587 16.1651 92.7182 16.1707 91.7834 16.1537C91.0881 16.1423 90.5295 16.3982 90.0393 16.8758C88.6656 18.2176 86.4142 20.4238 84.8069 22.0044C83.798 22.9995 83.04 23.7443 82.9089 23.8808L82.8633 23.9262H85.052C85.1033 23.9262 85.1489 23.9262 85.2002 23.9262C85.4225 23.9319 85.5821 23.858 85.736 23.7045C87.5371 21.9419 89.3439 20.1906 91.1508 18.4394C91.9316 17.6832 91.5953 17.8367 92.6726 17.8253C93.0317 17.8196 93.0317 17.8253 93.0317 18.1949V23.5396C93.0317 23.8751 93.0317 23.9206 93.2882 23.9262L94.7302 23.9319C94.9012 23.9092 94.9468 23.8068 94.9468 23.5908C94.9468 21.2198 94.9468 18.8602 94.9582 16.4948Z" fill="white"/>
<path d="M84.1686 16.1593C82.698 16.1593 81.2332 16.1593 79.7627 16.1593V16.165C78.2921 16.165 76.8273 16.1479 75.3567 16.1706C74.2795 16.1877 73.3447 17.0861 73.3333 18.1152C73.3105 19.9688 73.3276 21.8281 73.3219 23.6817C73.3219 23.8579 73.3789 23.9262 73.5613 23.9262H74.9292C75.1686 23.9318 75.2598 23.8579 75.2541 23.6134C75.2427 23.0221 75.2598 22.4308 75.2484 21.8394C75.2427 21.5836 75.3225 21.4812 75.5961 21.4869C76.5537 21.4983 77.5112 21.4926 78.4688 21.4926C80.0305 21.4926 81.5923 21.4869 83.154 21.4983C83.3934 21.4983 83.4846 21.4358 83.4732 21.1856V20.1621C83.4846 19.9119 83.4105 19.8267 83.1483 19.8323C82.0426 19.8437 80.9368 19.838 79.8311 19.838C78.4061 19.838 76.9869 19.8323 75.5619 19.8437C75.3339 19.8437 75.2427 19.7698 75.2484 19.5424C75.2598 19.2126 75.2541 18.8771 75.2541 18.5473C75.2541 17.9276 75.351 17.8309 75.9837 17.8309H84.123C84.5505 17.8309 84.5505 17.8309 84.5505 17.4215C84.5505 17.1259 84.5505 16.8302 84.5505 16.5345C84.5448 16.1706 84.5391 16.1593 84.1686 16.1593Z" fill="white"/>
<path d="M59.1009 16.3981C59.1579 16.2901 59.0781 16.1536 58.9527 16.1536H57.277C57.1117 16.1536 56.9635 16.2446 56.8951 16.3924C56.5873 17.0179 55.7893 18.6554 55.7608 18.718C55.5728 19.0989 55.2878 19.3036 54.8375 19.3036C53.156 19.2922 51.4746 19.2922 49.7875 19.3036C49.5196 19.3036 49.4284 19.224 49.4341 18.9568C49.4455 18.1266 49.4341 17.2965 49.4398 16.4664C49.4398 16.2389 49.36 16.1536 49.132 16.1593H47.7641C47.5703 16.1536 47.5076 16.2276 47.5076 16.4152C47.5133 18.8317 47.5133 21.2539 47.5076 23.6703C47.5076 23.8637 47.576 23.9262 47.7698 23.9262L49.1092 23.9319C49.3771 23.9433 49.4455 23.8409 49.4398 23.5964C49.4284 22.8288 49.4455 22.0612 49.4341 21.2993C49.4284 21.0492 49.5253 20.9582 49.7761 20.9582C51.4461 20.9639 53.1219 20.9639 54.7976 20.9639C55.2536 20.9639 55.5728 21.1629 55.7665 21.5723C55.795 21.6348 56.5132 23.1074 56.8039 23.6931C56.878 23.8409 57.0262 23.9319 57.1858 23.9319H58.8273C58.9527 23.9319 59.0325 23.8011 58.9755 23.6874L58.4226 22.6469L57.5563 21.0207C57.4195 20.7649 57.2827 20.5033 57.1516 20.2475C57.1231 20.1735 57.1231 20.0939 57.1573 20.0257C57.2371 19.8779 58.6563 17.2283 59.1009 16.3981Z" fill="white"/>
<path d="M69.1724 16.1764H62.6177C61.3295 16.1764 60.2808 17.2226 60.2808 18.5076V21.6007C60.2808 22.8857 61.3295 23.9319 62.6177 23.9319H69.1724C70.4606 23.9319 71.5093 22.8857 71.5093 21.6007V18.5076C71.5093 17.2226 70.4606 16.1764 69.1724 16.1764ZM69.5771 21.6974C69.5771 22.1295 69.4232 22.2717 68.9786 22.2717C66.9267 22.2717 64.8691 22.2717 62.8172 22.2717C62.3726 22.2717 62.213 22.1182 62.213 21.669C62.2073 20.5887 62.2073 19.5083 62.213 18.428C62.213 17.9732 62.3612 17.8367 62.8172 17.8367C63.8488 17.8367 64.8805 17.8367 65.9121 17.8367C66.9324 17.8367 67.9584 17.8367 68.9786 17.8367C69.4403 17.8367 69.5714 17.9561 69.5714 18.4053C69.5828 19.5027 69.5828 20.6 69.5771 21.6974Z" fill="white"/>
</svg>
