<svg width="16" height="10" viewBox="0 0 16 10" fill="none" xmlns="http://www.w3.org/2000/svg">
<path d="M13.5 4.5C13.3618 4.50032 13.2238 4.51181 13.0875 4.53438L12.7237 3.58813C12.9783 3.52969 13.2387 3.50012 13.5 3.5C13.6326 3.5 13.7598 3.44732 13.8535 3.35355C13.9473 3.25979 14 3.13261 14 3C14 2.86739 13.9473 2.74021 13.8535 2.64645C13.7598 2.55268 13.6326 2.5 13.5 2.5H12.305L11.4669 0.320625C11.4306 0.226242 11.3665 0.145075 11.2832 0.0878341C11.1998 0.0305931 11.1011 -3.19571e-05 11 2.5024e-08H8.99998C8.86737 2.5024e-08 8.74019 0.0526785 8.64642 0.146447C8.55266 0.240215 8.49998 0.367392 8.49998 0.5C8.49998 0.632608 8.55266 0.759785 8.64642 0.853553C8.74019 0.947321 8.86737 1 8.99998 1H10.6569L11.2337 2.5H9.49998C8.34373 2.5 7.40623 2.76937 6.78935 3.27875C6.64419 3.39585 6.46917 3.47003 6.28406 3.49289C6.09896 3.51575 5.91115 3.48639 5.74185 3.40812C5.0806 3.1075 1.16123 1.52562 1.12935 1.51687C1.00479 1.48026 0.870878 1.49354 0.755929 1.55389C0.640979 1.61424 0.554012 1.71693 0.513419 1.84025C0.472827 1.96357 0.481793 2.09784 0.538422 2.21467C0.59505 2.3315 0.6949 2.42172 0.816853 2.46625C0.816853 2.46625 4.2856 3.8375 4.97498 4.525C5.51054 5.05839 5.85784 5.75168 5.96435 6.5H4.94998C4.82607 5.89298 4.48118 5.35359 3.98218 4.9864C3.48318 4.61921 2.86562 4.45039 2.24922 4.51266C1.63281 4.57493 1.06149 4.86386 0.64601 5.32342C0.230528 5.78299 0.000488281 6.38046 0.000488281 7C0.000488281 7.61954 0.230528 8.21701 0.64601 8.67658C1.06149 9.13614 1.63281 9.42507 2.24922 9.48734C2.86562 9.54961 3.48318 9.38079 3.98218 9.0136C4.48118 8.64641 4.82607 8.10702 4.94998 7.5H8.20748C8.64114 7.50095 9.0633 7.36053 9.40999 7.10001C9.75668 6.83949 10.009 6.47306 10.1287 6.05625C10.2535 5.6129 10.4644 5.19852 10.7496 4.83687C11.0348 4.47523 11.3886 4.17342 11.7906 3.94875L12.1544 4.89437C11.6476 5.21874 11.2748 5.71499 11.1044 6.29205C10.934 6.86911 10.9775 7.48826 11.2268 8.03586C11.4761 8.58347 11.9145 9.0228 12.4616 9.27321C13.0087 9.52362 13.6278 9.56831 14.2052 9.39909C14.7826 9.22986 15.2796 8.85807 15.605 8.35196C15.9304 7.84584 16.0623 7.23935 15.9766 6.6438C15.8908 6.04825 15.5932 5.5036 15.1383 5.1098C14.6834 4.71601 14.1017 4.4995 13.5 4.5ZM2.49998 7.5H3.91373C3.79578 7.83361 3.56369 8.11478 3.25849 8.29382C2.95328 8.47285 2.59461 8.53823 2.24586 8.4784C1.89711 8.41856 1.58075 8.23736 1.35268 7.96683C1.1246 7.6963 0.999514 7.35384 0.999514 7C0.999514 6.64616 1.1246 6.3037 1.35268 6.03317C1.58075 5.76264 1.89711 5.58144 2.24586 5.5216C2.59461 5.46177 2.95328 5.52715 3.25849 5.70618C3.56369 5.88522 3.79578 6.16639 3.91373 6.5H2.49998C2.36737 6.5 2.24019 6.55268 2.14642 6.64645C2.05266 6.74021 1.99998 6.86739 1.99998 7C1.99998 7.13261 2.05266 7.25979 2.14642 7.35355C2.24019 7.44732 2.36737 7.5 2.49998 7.5ZM13.5 8.5C13.1936 8.49962 12.8947 8.40542 12.6434 8.23007C12.3921 8.05473 12.2006 7.80665 12.0946 7.51919C11.9885 7.23174 11.973 6.9187 12.0502 6.62219C12.1274 6.32568 12.2935 6.05991 12.5262 5.86063L13.0331 7.17937C13.0807 7.3032 13.1755 7.40305 13.2967 7.45697C13.4179 7.51088 13.5555 7.51445 13.6794 7.46688C13.8032 7.4193 13.903 7.32449 13.9569 7.20329C14.0109 7.0821 14.0144 6.94445 13.9669 6.82063L13.4594 5.5H13.5C13.8978 5.5 14.2793 5.65804 14.5606 5.93934C14.8419 6.22064 15 6.60218 15 7C15 7.39782 14.8419 7.77936 14.5606 8.06066C14.2793 8.34196 13.8978 8.5 13.5 8.5Z" fill="#FAFBFB"/>
</svg>
