<svg width="14" height="14" viewBox="0 0 14 14" fill="none" xmlns="http://www.w3.org/2000/svg">
<path d="M7 0.5C5.71442 0.5 4.45772 0.881218 3.3888 1.59545C2.31988 2.30968 1.48676 3.32484 0.994786 4.51256C0.502816 5.70028 0.374095 7.00721 0.624899 8.26809C0.875703 9.52896 1.49477 10.6872 2.40381 11.5962C3.31285 12.5052 4.47104 13.1243 5.73192 13.3751C6.99279 13.6259 8.29973 13.4972 9.48744 13.0052C10.6752 12.5132 11.6903 11.6801 12.4046 10.6112C13.1188 9.54229 13.5 8.28558 13.5 7C13.4982 5.27665 12.8128 3.62441 11.5942 2.40582C10.3756 1.18722 8.72335 0.50182 7 0.5ZM10.2238 4.11188L8.22375 8.11187C8.19927 8.16008 8.16009 8.19926 8.11188 8.22375L4.11188 10.2238C4.06492 10.2473 4.01172 10.2555 3.95984 10.2472C3.90795 10.2388 3.86003 10.2143 3.82287 10.1771C3.78571 10.14 3.7612 10.092 3.75283 10.0402C3.74447 9.98828 3.75266 9.93508 3.77625 9.88813L5.77625 5.88812C5.80074 5.83992 5.83992 5.80074 5.88813 5.77625L9.88813 3.77625C9.93509 3.75266 9.98829 3.74446 10.0402 3.75283C10.0921 3.7612 10.14 3.7857 10.1771 3.82286C10.2143 3.86002 10.2388 3.90795 10.2472 3.95983C10.2555 4.01172 10.2473 4.06492 10.2238 4.11188Z" fill="#FAFBFB"/>
</svg>
