<svg width="16" height="16" viewBox="0 0 16 16" fill="none" xmlns="http://www.w3.org/2000/svg">
<g clip-path="url(#clip0_149_20351)">
<path d="M12.3833 12.1781C12.4446 12.251 12.4838 12.3399 12.4963 12.4344C12.5088 12.5288 12.4941 12.6249 12.4538 12.7113C12.4136 12.7976 12.3495 12.8707 12.2691 12.9218C12.1887 12.973 12.0954 13.0001 12.0001 13H1.50013C1.40491 13 1.31167 12.9728 1.23139 12.9216C1.1511 12.8704 1.08711 12.7973 1.04693 12.711C1.00676 12.6246 0.992064 12.5286 1.00459 12.4342C1.01711 12.3398 1.05633 12.251 1.11763 12.1781C2.05138 11.0669 3.21263 10.2775 4.50325 9.855C3.71944 9.36681 3.11595 8.63663 2.78409 7.77492C2.45222 6.91321 2.41003 5.96685 2.66391 5.07903C2.91778 4.19121 3.45391 3.41022 4.19117 2.85423C4.92843 2.29824 5.82672 1.9975 6.75013 1.9975C7.67353 1.9975 8.57182 2.29824 9.30908 2.85423C10.0463 3.41022 10.5825 4.19121 10.8363 5.07903C11.0902 5.96685 11.048 6.91321 10.7162 7.77492C10.3843 8.63663 9.78081 9.36681 8.997 9.855C10.2876 10.2775 11.4489 11.0669 12.3833 12.1781ZM15.9489 9.625C15.9049 9.70112 15.8417 9.7643 15.7655 9.8082C15.6894 9.85209 15.603 9.87513 15.5151 9.875C15.4273 9.87527 15.3411 9.85219 15.2651 9.80812L14.9733 9.63937C14.8336 9.75921 14.673 9.85223 14.4995 9.91375V10.25C14.4995 10.3826 14.4468 10.5098 14.3531 10.6036C14.2593 10.6973 14.1321 10.75 13.9995 10.75C13.8669 10.75 13.7397 10.6973 13.646 10.6036C13.5522 10.5098 13.4995 10.3826 13.4995 10.25V9.91375C13.326 9.85223 13.1654 9.75921 13.0258 9.63937L12.7339 9.80812C12.6579 9.85219 12.5717 9.87527 12.4839 9.875C12.3738 9.87504 12.2667 9.83874 12.1794 9.77173C12.092 9.70472 12.0292 9.61075 12.0007 9.50439C11.9722 9.39804 11.9796 9.28526 12.0218 9.18355C12.0639 9.08183 12.1385 8.99688 12.2339 8.94187L12.5251 8.77375C12.491 8.59285 12.491 8.40715 12.5251 8.22625L12.2339 8.05812C12.177 8.02529 12.1271 7.98158 12.0872 7.92948C12.0472 7.87738 12.0178 7.81792 12.0008 7.75449C11.9838 7.69105 11.9795 7.62489 11.9881 7.55978C11.9966 7.49466 12.0179 7.43188 12.0508 7.375C12.0836 7.31812 12.1273 7.26826 12.1794 7.22828C12.2315 7.18829 12.291 7.15896 12.3544 7.14196C12.4178 7.12495 12.484 7.12061 12.5491 7.12917C12.6142 7.13774 12.677 7.15904 12.7339 7.19187L13.0258 7.36062C13.1654 7.24078 13.326 7.14777 13.4995 7.08625V6.75C13.4995 6.61739 13.5522 6.49021 13.646 6.39644C13.7397 6.30268 13.8669 6.25 13.9995 6.25C14.1321 6.25 14.2593 6.30268 14.3531 6.39644C14.4468 6.49021 14.4995 6.61739 14.4995 6.75V7.08625C14.673 7.14777 14.8336 7.24078 14.9733 7.36062L15.2651 7.19187C15.322 7.15904 15.3848 7.13774 15.4499 7.12917C15.515 7.12061 15.5812 7.12495 15.6446 7.14196C15.7081 7.15896 15.7675 7.18829 15.8196 7.22828C15.8717 7.26826 15.9154 7.31812 15.9483 7.375C15.9811 7.43188 16.0024 7.49466 16.011 7.55978C16.0195 7.62489 16.0152 7.69105 15.9982 7.75449C15.9812 7.81792 15.9518 7.87738 15.9118 7.92948C15.8719 7.98158 15.822 8.02529 15.7651 8.05812L15.4739 8.22625C15.508 8.40715 15.508 8.59285 15.4739 8.77375L15.7651 8.94187C15.8221 8.97464 15.872 9.01831 15.912 9.07038C15.9521 9.12246 15.9815 9.18191 15.9986 9.24536C16.0156 9.3088 16.02 9.37498 16.0115 9.44012C16.003 9.50526 15.9817 9.56809 15.9489 9.625ZM14.0001 9C14.099 9 14.1957 8.97067 14.2779 8.91573C14.3601 8.86079 14.4242 8.7827 14.4621 8.69134C14.4999 8.59998 14.5098 8.49944 14.4905 8.40245C14.4712 8.30546 14.4236 8.21637 14.3537 8.14644C14.2838 8.07652 14.1947 8.0289 14.0977 8.00961C14.0007 7.99031 13.9002 8.00021 13.8088 8.03806C13.7174 8.0759 13.6393 8.13999 13.5844 8.22221C13.5295 8.30444 13.5001 8.40111 13.5001 8.5C13.5001 8.63261 13.5528 8.75978 13.6466 8.85355C13.7403 8.94732 13.8675 9 14.0001 9Z" fill="#FAFBFB"/>
</g>
<defs>
<clipPath id="clip0_149_20351">
<rect width="16" height="16" fill="white"/>
</clipPath>
</defs>
</svg>
